<svg width="200" height="200" viewBox="0 0 200 200" fill="none" xmlns="http://www.w3.org/2000/svg">
<circle cx="100" cy="100" r="100" fill="url(#paint0_linear_1_118)"/>
<path d="M65.0429 116L87.6509 71.144L90.4589 75.032H61.2269V65.816H97.5149V72.944L76.0589 116H65.0429ZM129.884 65.816L117.572 84.248L116.348 82.664C117.116 82.472 117.86 82.304 118.58 82.16C119.3 82.016 120.044 81.944 120.812 81.944C124.076 81.944 127.004 82.712 129.596 84.248C132.236 85.736 134.3 87.776 135.788 90.368C137.324 92.912 138.092 95.792 138.092 99.008C138.092 102.512 137.228 105.608 135.5 108.296C133.82 110.936 131.564 113 128.732 114.488C125.948 115.976 122.852 116.72 119.444 116.72C116.036 116.72 112.892 115.976 110.012 114.488C107.18 113 104.9 110.936 103.172 108.296C101.492 105.608 100.652 102.536 100.652 99.08C100.652 97.448 100.892 95.816 101.372 94.184C101.9 92.552 102.62 91.016 103.532 89.576L118.436 65.816H129.884ZM119.444 90.728C117.86 90.728 116.396 91.064 115.052 91.736C113.756 92.408 112.724 93.368 111.956 94.616C111.188 95.816 110.804 97.28 110.804 99.008C110.804 100.736 111.188 102.224 111.956 103.472C112.724 104.672 113.756 105.608 115.052 106.28C116.348 106.952 117.812 107.288 119.444 107.288C121.028 107.288 122.468 106.952 123.764 106.28C125.06 105.608 126.092 104.672 126.86 103.472C127.628 102.224 128.012 100.736 128.012 99.008C128.012 97.28 127.628 95.816 126.86 94.616C126.092 93.368 125.06 92.408 123.764 91.736C122.468 91.064 121.028 90.728 119.444 90.728Z" fill="white"/>
<path opacity="0.516811" d="M78.166 149.18C77.302 149.18 76.534 148.982 75.862 148.586C75.19 148.19 74.656 147.644 74.26 146.948C73.876 146.24 73.684 145.442 73.684 144.554C73.684 143.654 73.876 142.862 74.26 142.178C74.644 141.482 75.172 140.936 75.844 140.54C76.528 140.144 77.302 139.946 78.166 139.946C79.018 139.946 79.78 140.144 80.452 140.54C81.124 140.936 81.652 141.482 82.036 142.178C82.42 142.862 82.612 143.654 82.612 144.554C82.612 145.442 82.42 146.234 82.036 146.93C81.652 147.626 81.124 148.178 80.452 148.586C79.78 148.982 79.018 149.18 78.166 149.18ZM78.166 147.218C78.622 147.218 79.012 147.11 79.336 146.894C79.672 146.678 79.924 146.372 80.092 145.976C80.272 145.58 80.362 145.106 80.362 144.554C80.362 143.99 80.272 143.516 80.092 143.132C79.924 142.736 79.672 142.436 79.336 142.232C79.012 142.016 78.622 141.908 78.166 141.908C77.698 141.908 77.296 142.016 76.96 142.232C76.624 142.436 76.366 142.736 76.186 143.132C76.006 143.516 75.916 143.99 75.916 144.554C75.916 145.106 76.006 145.58 76.186 145.976C76.366 146.372 76.624 146.678 76.96 146.894C77.296 147.11 77.698 147.218 78.166 147.218ZM85.0125 149V141.872H83.4105V140.126H85.0305V139.19C85.0305 138.422 85.1565 137.828 85.4085 137.408C85.6605 136.988 85.9965 136.694 86.4165 136.526C86.8485 136.358 87.3105 136.274 87.8025 136.274C88.1745 136.274 88.4925 136.31 88.7565 136.382C89.0325 136.442 89.2965 136.532 89.5485 136.652L88.8285 138.362C88.7085 138.302 88.5825 138.254 88.4505 138.218C88.3185 138.17 88.1865 138.146 88.0545 138.146C87.7665 138.146 87.5625 138.242 87.4425 138.434C87.3225 138.626 87.2625 138.884 87.2625 139.208V140.126H89.1525V141.872H87.2625V149H85.0125ZM99.0421 149V139.082L99.6901 140.18H95.8381V138.416H97.7821C98.1901 138.416 98.5021 138.326 98.7181 138.146C98.9341 137.954 99.0421 137.63 99.0421 137.174V136.454H101.292V149H99.0421ZM109.294 149.162C108.514 149.162 107.86 149.024 107.332 148.748C106.804 148.472 106.378 148.106 106.054 147.65C105.73 147.182 105.484 146.666 105.316 146.102C105.16 145.538 105.052 144.956 104.992 144.356C104.932 143.756 104.902 143.192 104.902 142.664C104.902 142.148 104.926 141.602 104.974 141.026C105.034 140.438 105.142 139.862 105.298 139.298C105.466 138.734 105.712 138.224 106.036 137.768C106.36 137.312 106.78 136.946 107.296 136.67C107.824 136.394 108.484 136.256 109.276 136.256C110.056 136.256 110.704 136.394 111.22 136.67C111.748 136.934 112.174 137.294 112.498 137.75C112.822 138.206 113.062 138.716 113.218 139.28C113.386 139.844 113.5 140.42 113.56 141.008C113.62 141.584 113.65 142.136 113.65 142.664C113.65 143.216 113.62 143.792 113.56 144.392C113.5 144.992 113.386 145.574 113.218 146.138C113.05 146.702 112.804 147.212 112.48 147.668C112.156 148.124 111.736 148.49 111.22 148.766C110.704 149.03 110.062 149.162 109.294 149.162ZM109.294 147.02C109.858 147.02 110.29 146.828 110.59 146.444C110.89 146.048 111.094 145.526 111.202 144.878C111.31 144.23 111.364 143.516 111.364 142.736C111.364 141.932 111.304 141.206 111.184 140.558C111.076 139.898 110.872 139.376 110.572 138.992C110.272 138.608 109.84 138.416 109.276 138.416C108.832 138.416 108.472 138.53 108.196 138.758C107.92 138.986 107.71 139.298 107.566 139.694C107.434 140.09 107.338 140.552 107.278 141.08C107.23 141.596 107.206 142.148 107.206 142.736C107.206 143.3 107.23 143.84 107.278 144.356C107.338 144.872 107.44 145.328 107.584 145.724C107.728 146.12 107.938 146.438 108.214 146.678C108.49 146.906 108.85 147.02 109.294 147.02ZM119.367 149.162C118.587 149.162 117.933 149.024 117.405 148.748C116.877 148.472 116.451 148.106 116.127 147.65C115.803 147.182 115.557 146.666 115.389 146.102C115.233 145.538 115.125 144.956 115.065 144.356C115.005 143.756 114.975 143.192 114.975 142.664C114.975 142.148 114.999 141.602 115.047 141.026C115.107 140.438 115.215 139.862 115.371 139.298C115.539 138.734 115.785 138.224 116.109 137.768C116.433 137.312 116.853 136.946 117.369 136.67C117.897 136.394 118.557 136.256 119.349 136.256C120.129 136.256 120.777 136.394 121.293 136.67C121.821 136.934 122.247 137.294 122.571 137.75C122.895 138.206 123.135 138.716 123.291 139.28C123.459 139.844 123.573 140.42 123.633 141.008C123.693 141.584 123.723 142.136 123.723 142.664C123.723 143.216 123.693 143.792 123.633 144.392C123.573 144.992 123.459 145.574 123.291 146.138C123.123 146.702 122.877 147.212 122.553 147.668C122.229 148.124 121.809 148.49 121.293 148.766C120.777 149.03 120.135 149.162 119.367 149.162ZM119.367 147.02C119.931 147.02 120.363 146.828 120.663 146.444C120.963 146.048 121.167 145.526 121.275 144.878C121.383 144.23 121.437 143.516 121.437 142.736C121.437 141.932 121.377 141.206 121.257 140.558C121.149 139.898 120.945 139.376 120.645 138.992C120.345 138.608 119.913 138.416 119.349 138.416C118.905 138.416 118.545 138.53 118.269 138.758C117.993 138.986 117.783 139.298 117.639 139.694C117.507 140.09 117.411 140.552 117.351 141.08C117.303 141.596 117.279 142.148 117.279 142.736C117.279 143.3 117.303 143.84 117.351 144.356C117.411 144.872 117.513 145.328 117.657 145.724C117.801 146.12 118.011 146.438 118.287 146.678C118.563 146.906 118.923 147.02 119.367 147.02Z" fill="#CAC9FF"/>
<defs>
<linearGradient id="paint0_linear_1_118" x1="100" y1="0" x2="100" y2="200" gradientUnits="userSpaceOnUse">
<stop stop-color="#4D21C9"/>
<stop offset="1" stop-color="#2521C9" stop-opacity="0"/>
<stop offset="1" stop-color="#2521C9" stop-opacity="0"/>
</linearGradient>
</defs>
</svg>
